<svg id="Layer_1" data-name="Layer 1" xmlns="http://www.w3.org/2000/svg" xmlns:xlink="http://www.w3.org/1999/xlink" viewBox="0 0 492.34 426.6"><defs><style>.cls-1,.cls-11,.cls-12,.cls-8,.cls-9{fill:none;}.cls-2,.cls-4{fill:#e5e5e5;}.cls-3,.cls-5,.cls-7{fill:#fff;}.cls-12,.cls-3,.cls-4,.cls-5,.cls-7,.cls-9{stroke:#000;}.cls-11,.cls-12,.cls-3,.cls-4,.cls-5,.cls-7,.cls-8,.cls-9{stroke-miterlimit:10;}.cls-5,.cls-8,.cls-9{stroke-linecap:round;}.cls-5,.cls-7,.cls-8{stroke-width:2px;}.cls-6{fill:gray;}.cls-8{stroke:#fff;}.cls-9{stroke-width:4px;}.cls-10{fill:#ababab;}.cls-11{stroke:gray;stroke-width:3px;}.cls-11,.cls-12{stroke-dasharray:5 3;}.cls-13{clip-path:url(#clip-path);}</style><clipPath id="clip-path" transform="translate(-56.26 -26.93)"><polyline class="cls-1" points="289.73 453.32 426.3 165.51 259.09 436.65"/></clipPath></defs><title>close-drain</title><path class="cls-2" d="M432.87,301.38a11.79,11.79,0,0,1-10.75-7,11.75,11.75,0,0,1-.24-9L473.78,150a11.79,11.79,0,0,1,22.72,2.91V153c.09,1.38.07,101.23.07,102.24a21.29,21.29,0,0,1-.66,5.89A11.85,11.85,0,0,1,492,266.3l-.1.07L439.6,299.3h0l-.31.19A11.81,11.81,0,0,1,432.87,301.38Z" transform="translate(-56.26 -26.93)"/><path d="M484.79,142.92A11.29,11.29,0,0,1,496,153h0V153c.07,1.4.08,67.48.07,102.25a20.28,20.28,0,0,1-.63,5.69,11.2,11.2,0,0,1-3.75,5l-.06.05-52,32.73h0l-.61.39a11.3,11.3,0,0,1-6.14,1.82,11.07,11.07,0,0,1-4-.75,11.28,11.28,0,0,1-6.5-14.58l51.9-135.38a11.35,11.35,0,0,1,10.54-7.25m0-1a12.28,12.28,0,0,0-11.47,7.89L421.42,285.2a12.27,12.27,0,0,0,18.13,14.7h0l52.72-33.19v0a12.15,12.15,0,0,0,4.08-5.41c.77-2,.7-6.06.7-6.06s0-101.47-.07-102.29v-.09h0a12.29,12.29,0,0,0-12.2-10.92Z" transform="translate(-56.26 -26.93)"/><path class="cls-3" d="M555.35,326.55" transform="translate(-56.26 -26.93)"/><path class="cls-3" d="M426.3,357.7" transform="translate(-56.26 -26.93)"/><path class="cls-3" d="M446.77,388.3" transform="translate(-56.26 -26.93)"/><path class="cls-4" d="M548.09,318.22V276a6,6,0,0,0-12,0,21,21,0,0,1-9.61,17.64L423.76,358.33a4,4,0,0,0,.87,7.13h0a21.52,21.52,0,0,1,14.18,22.14,4,4,0,0,0,6,3.78l96.23-60.59a15,15,0,0,0,7-12.69" transform="translate(-56.26 -26.93)"/><line class="cls-5" x1="486.06" y1="234.98" x2="486.06" y2="130.54"/><path class="cls-2" d="M172,300.79a11.81,11.81,0,0,1-6.41-1.9l-.31-.19h0l-52.34-32.95,0-.05a11.75,11.75,0,0,1-3.92-5.19,21.72,21.72,0,0,1-.67-5.87c0-1,0-100.87.08-102.26h0v-.08a11.76,11.76,0,0,1,7.49-9.69,11.57,11.57,0,0,1,4.22-.79,11.84,11.84,0,0,1,11,7.57L183,284.78A11.8,11.8,0,0,1,176.18,300,11.67,11.67,0,0,1,172,300.79Z" transform="translate(-56.26 -26.93)"/><path d="M120.06,141.33v1a11.35,11.35,0,0,1,10.54,7.25L182.5,285a11.3,11.3,0,0,1-6.5,14.58,11.15,11.15,0,0,1-4,.75,11.3,11.3,0,0,1-6.14-1.82l-.62-.38h0l-52-32.71-.09-.07a11.25,11.25,0,0,1-3.75-5,20.34,20.34,0,0,1-.64-5.71c0-34.75,0-100.83.07-102.19v-.07h0a11.28,11.28,0,0,1,11.21-10v-1m0,0a12.15,12.15,0,0,0-4.4.82,12.29,12.29,0,0,0-7.81,10.1h0v.1c-.09.82-.08,102.29-.08,102.29s-.06,4.06.7,6.06a12.25,12.25,0,0,0,4.09,5.41v0l52.72,33.19h0a12.27,12.27,0,0,0,18.14-14.7l-51.9-135.39a12.28,12.28,0,0,0-11.47-7.89Z" transform="translate(-56.26 -26.93)"/><path class="cls-3" d="M49.5,326" transform="translate(-56.26 -26.93)"/><path class="cls-3" d="M178.54,357.11" transform="translate(-56.26 -26.93)"/><path class="cls-3" d="M158.07,387.71" transform="translate(-56.26 -26.93)"/><path class="cls-2" d="M259.71,425.77a5.9,5.9,0,0,1-1.3-.15l-.1,0L184.25,402h-.05a15.91,15.91,0,0,1,3-30.67,16.29,16.29,0,0,1,2.41-.18,15.89,15.89,0,0,1,8.38,2.4l.46.29,64.68,41.36a5.84,5.84,0,0,1,2.31,3.84,5.9,5.9,0,0,1-4.93,6.72A5.69,5.69,0,0,1,259.71,425.77Z" transform="translate(-56.26 -26.93)"/><path d="M189.65,371.6h0a15.35,15.35,0,0,1,8.1,2.32l.32.19,64.79,41.44a5.39,5.39,0,0,1-2.4,9.66,4.65,4.65,0,0,1-.75.06,6.1,6.1,0,0,1-1.19-.13l-.07,0-74-23.62,0,0a15.41,15.41,0,0,1,5.28-29.88m0-1a16.06,16.06,0,0,0-2.49.19A16.4,16.4,0,0,0,184,402.42h0l74.25,23.7v0a6.46,6.46,0,0,0,1.4.16,5.46,5.46,0,0,0,.9-.07,6.4,6.4,0,0,0,2.82-11.48h0l-65.15-41.65h0a16.4,16.4,0,0,0-8.63-2.47Z" transform="translate(-56.26 -26.93)"/><circle class="cls-3" cx="134.04" cy="360.48" r="5.23"/><path class="cls-4" d="M56.76,317.63v-42.2a6,6,0,0,1,12,0,21,21,0,0,0,9.6,17.64l102.72,64.67a4,4,0,0,1-.86,7.13h0A21.5,21.5,0,0,0,166,387a4,4,0,0,1-6,3.78L63.77,330.2a15,15,0,0,1-7-12.69" transform="translate(-56.26 -26.93)"/><line class="cls-5" x1="6.27" y1="234.39" x2="6.27" y2="129.95"/><path class="cls-6" d="M415.11,371.05h-1.62a17.26,17.26,0,0,0-3.3.68l.91,2.86a13.32,13.32,0,0,1,4-.62v-3ZM407.43,373c-.33.17-.64.35-.95.55h0l-.05,0h0l-2.49,1.59h0l-.74.47,1.62,2.52,2.79-1.78.46-.28c.25-.16.52-.31.78-.45L407.43,373Zm-6.76,4.25-.37.24h0l0,0h-.06l-3.75,2.4,1.62,2.52,4.21-2.69-1.61-2.53Zm-6.74,4.31-3,1.93h0l-1.16.74,1.62,2.52,4.21-2.69-1.61-2.53Zm-6.74,4.31-4.22,2.7,1.62,2.52,4.21-2.69-1.61-2.53Zm-6.74,4.31L378,391.71h0l-1.74,1.12,1.62,2.52,4.21-2.69-1.61-2.53Zm-6.74,4.31-.17.11h-.2l-3.85,2.46,1.62,2.52,4.21-2.69-1.61-2.53ZM367,398.78l-4.22,2.7,1.62,2.52,4.21-2.69L367,398.78Zm-6.74,4.31-1.52,1h0l0,0h0L356,405.79l1.62,2.52,4.21-2.69-1.61-2.53Zm-6.74,4.31-4.22,2.7,1.62,2.52,4.21-2.69-1.61-2.53Zm-6.74,4.31-4.22,2.69,1.62,2.53,4.21-2.69-1.61-2.53Zm-6.56,4.54a6.31,6.31,0,0,0-1.37,2.93h0v0h0v0h0v0h0v0h-.07a7.36,7.36,0,0,0,0,1.15l3-.26a3.22,3.22,0,0,1,0-.82,3.45,3.45,0,0,1,.74-1.65l-2.3-1.92Zm2,5.88-2.54,1.59a6,6,0,0,0,.86,1.1h0l0,0h0l0,0h1.77a7.31,7.31,0,0,0,1.27.44l.68-2.92a3.4,3.4,0,0,1-2.1-1.51Zm8.23,0-4.77,1.52.91,2.86,1.17-.37h0l3.59-1.14-.91-2.86Zm7.62-2.43-4.76,1.52.91,2.86,4.76-1.52-.91-2.86Zm7.62-2.43-4.76,1.52.91,2.86,2.84-.91h0l1.92-.61-.91-2.86Zm7.62-2.43-4.76,1.52.91,2.85.8-.25,4-1.27-.92-2.85Zm7.62-2.44-4.76,1.52.91,2.86,1.78-.57,2.62-.83.37-.12-.92-2.86Zm7.63-2.43-4.77,1.52.92,2.86,4.76-1.52-.91-2.86Zm7.62-2.43-4.77,1.52.92,2.86,0,0h.05l3.06-1h0l1.57-.5-.91-2.86Zm7.62-2.43-4.76,1.52.91,2.85,4.76-1.52-.91-2.85Zm7.62-2.44-4.76,1.52.91,2.86,1-.32,1.45-.46h0l.07,0h0l0,0,2.2-.7-.92-2.86Zm7.62-2.43-4.76,1.52.91,2.86,4.77-1.52-.92-2.86Zm5.57-3.35a13.65,13.65,0,0,1-3.28,2.42l1.39,2.65a16.86,16.86,0,0,0,3.18-2.17h0l0,0h.23l0,0h0v0h0l.52-.5-2.12-2.12Zm3.32-5.55a13.21,13.21,0,0,1-1.76,3.67l2.48,1.69.33-.51h0l0-.06h0v0h0l0,0h0v0h0v0h.14v0h0v0h.07v0h0l0,0h0v0h0a16.76,16.76,0,0,0,1.11-2.39h0v0h0v0h0v0h0v0h.06v0h0v0h0v0h0c.06-.17.11-.34.16-.51l-2.87-.87Zm3.28-7-2.94.58a13.47,13.47,0,0,1,.16,4.06l3,.34h0v0h.08v0h0v0h0v0h0v0h0v0h0v0h0v0h0v0h0v0h0v0h0v0h0v0h0v0h0v0h0v0h0a15.87,15.87,0,0,0-.3-2.77Zm-3.35-7.18L425.54,379a13.35,13.35,0,0,1,2,3.52l2.79-1.1A15.76,15.76,0,0,0,429,378.7h0l0,0h0l0,0h0v0h0v0h-.15v0h0l0,0h0l0,0h0l0,0h0l0,0h0l0,0h0c-.23-.33-.47-.65-.73-1Zm-6.31-4.77-1.18,2.76a12.94,12.94,0,0,1,3.45,2.14l2-2.28c-.23-.19-.47-.39-.72-.57h0l0,0h0l0,0h0l0,0h-.16l0,0h0l0,0h-.05l0,0h0l0,0h0c-.24-.18-.48-.34-.73-.5h0l0,0h-.4l0,0h0l0,0h0a15.23,15.23,0,0,0-1.85-.93Zm-6.45-1.32v3a12.75,12.75,0,0,1,2,.16c.3,0,.6.1.9.17l.66-2.93-.3-.06h-.81a16.25,16.25,0,0,0-2.49-.19Z" transform="translate(-56.26 -26.93)"/><circle class="cls-3" cx="358.21" cy="360.93" r="5.23"/><circle class="cls-7" cx="6.27" cy="119.76" r="3.31"/><circle cx="400.31" cy="80.71" r="16.5"/><path class="cls-8" d="M444.81,105.28A12,12,0,0,1,460,96.15" transform="translate(-56.26 -26.93)"/><circle class="cls-7" cx="486.06" cy="120.35" r="3.31"/><path class="cls-9" d="M340.06,373.51a83.45,83.45,0,0,0,.77,33.64" transform="translate(-56.26 -26.93)"/><polygon points="275.41 350.31 283.36 349.02 289.8 353.85 286.8 335.03 275.41 350.31"/><path class="cls-2" d="M415.14,403.48a16,16,0,0,1-8.65-2.54l0,0-63.59-44.77-.06-.06a5.8,5.8,0,0,1-1.35-1.64A5.9,5.9,0,0,1,341,350a5.94,5.94,0,0,1,5.65-4.22,5.94,5.94,0,0,1,1.68.25l72.26,26.66.25.1a15.9,15.9,0,0,1-5.68,30.74Z" transform="translate(-56.26 -26.93)"/><path d="M346.63,346.23h0a5.51,5.51,0,0,1,1.51.22l72,26.56.52.2a15.4,15.4,0,1,1-13.88,27.31l0,0c-1.68-1.17-60.19-42.37-63.54-44.73l-.07-.06a5.27,5.27,0,0,1-1.23-1.5,5.41,5.41,0,0,1,4.74-8m0-1a6.31,6.31,0,0,0-3,.78,6.34,6.34,0,0,0-1.12,10.45h0s63.63,44.81,63.73,44.87l0,0h0a16.41,16.41,0,0,0,23.32-21.6,16.31,16.31,0,0,0-8.54-7.48h0L348.46,345.5h0a6.64,6.64,0,0,0-1.83-.27Z" transform="translate(-56.26 -26.93)"/><circle class="cls-3" cx="358.15" cy="360.37" r="5.23"/><path class="cls-10" d="M324.62,438.41l-14.68-7.14,14.69-7.14a1.66,1.66,0,0,0,.73-2.22l-1.48-3a1.65,1.65,0,0,0-2.22-.74l-19.28,9.38-19.29-9.38a1.65,1.65,0,0,0-2.22.74l-1.48,3a1.65,1.65,0,0,0,.74,2.22l14.68,7.14-14.68,7.14a1.65,1.65,0,0,0-.74,2.22l1.48,3a1.65,1.65,0,0,0,2.22.74L302.38,435l19.28,9.38a1.65,1.65,0,0,0,2.22-.74l1.48-3A1.65,1.65,0,0,0,324.62,438.41ZM294.73,416.1l-.57,2.67a2,2,0,0,0,1.7,2.57h13a2,2,0,0,0,1.7-2.57L310,416.1a13,13,0,0,0,7.24-11.3c0-7.31-6.67-13.24-14.89-13.24s-14.89,5.93-14.89,13.24A13,13,0,0,0,294.73,416.1Zm13.44-13a3.31,3.31,0,1,1-3.31,3.31A3.32,3.32,0,0,1,308.17,403.14Zm-11.58,0a3.31,3.31,0,1,1-3.31,3.31A3.32,3.32,0,0,1,296.59,403.14Z" transform="translate(-56.26 -26.93)"/><line class="cls-9" x1="437.87" y1="2" x2="414.8" y2="49.32"/><polygon points="410.61 41.02 415.89 47.09 423.92 47.51 409.57 60.05 410.61 41.02"/><line class="cls-11" x1="87.91" y1="105.41" x2="406.14" y2="105.41"/><polyline class="cls-12" points="233.48 426.39 370.05 138.59 202.84 409.73"/><g class="cls-13"><path d="M324.62,438.41l-14.68-7.14,14.69-7.14a1.66,1.66,0,0,0,.73-2.22l-1.48-3a1.65,1.65,0,0,0-2.22-.74l-19.28,9.38-19.29-9.38a1.65,1.65,0,0,0-2.22.74l-1.48,3a1.65,1.65,0,0,0,.74,2.22l14.68,7.14-14.68,7.14a1.65,1.65,0,0,0-.74,2.22l1.48,3a1.65,1.65,0,0,0,2.22.74L302.38,435l19.28,9.38a1.65,1.65,0,0,0,2.22-.74l1.48-3A1.65,1.65,0,0,0,324.62,438.41ZM294.73,416.1l-.57,2.67a2,2,0,0,0,1.7,2.57h13a2,2,0,0,0,1.7-2.57L310,416.1a13,13,0,0,0,7.24-11.3c0-7.31-6.67-13.24-14.89-13.24s-14.89,5.93-14.89,13.24A13,13,0,0,0,294.73,416.1Zm13.44-13a3.31,3.31,0,1,1-3.31,3.31A3.32,3.32,0,0,1,308.17,403.14Zm-11.58,0a3.31,3.31,0,1,1-3.31,3.31A3.32,3.32,0,0,1,296.59,403.14Z" transform="translate(-56.26 -26.93)"/></g></svg>