<svg id="Layer_1" data-name="Layer 1" xmlns="http://www.w3.org/2000/svg" viewBox="0 0 302 323.21"><title>skully</title><path d="M208.38,86.51l1.2-1a130.34,130.34,0,0,0-77.74,64.7l4.77-4A128.69,128.69,0,0,1,208.38,86.51Z" transform="translate(-96.5 -68.5)"/><path d="M127.34,311a151,151,0,1,1,231.3,10.78l7.86,24.77-23,19c-5-5-22-15-33-14s-23,38-23,38c1-27,13-53,29-48s23,15,23,15l21-14S346.75,324,336.32,320.61c-11.52,5.66-10.54,5-10.54,5a140,140,0,1,0-169.28-9.7l-15-9.39-16,28,26,2s23-20,33-18l2,54-15-40-21,16h-40Z" transform="translate(-96.5 -68.5)"/><path d="M208.5,235.67a21.26,21.26,0,0,1,5.64.77c-5.69-5.61-13.74-12.28-17-14.86,20,10.22,31.11,21,36,33.81h0a48.18,48.18,0,0,1,3.41,18c0,20.85-12.54,37.75-28,37.75s-28-16.9-28-37.75S193,235.67,208.5,235.67Z" transform="translate(-96.5 -68.5)"/><path d="M260,270.16a45.71,45.71,0,0,0-.53,7C259.5,297,272,313,287.5,313s28-16.07,28-35.89c0-17.34-9.6-31.81-22.36-35.15" transform="translate(-96.5 -68.5)"/><path d="M245.15,306.92s-14.24,34.51-18.5,38.52a84.9,84.9,0,0,1,15.65-15.25s5.55,9.4,8.35,13.24C246.08,332.38,243.93,317.76,245.15,306.92Z" transform="translate(-96.5 -68.5)"/><path d="M290.05,96.16a31.2,31.2,0,0,1,2.61-8.24,130.05,130.05,0,0,1,52,35.21,31.51,31.51,0,0,1-13.43,8.62c-10.79-16-23.91-26.76-41.16-35.59" transform="translate(-96.5 -68.5)"/><path d="M197.11,337.08c0,49.92,4.22,46.27,78.71,54.63C242.56,384.62,198.72,377.89,197.11,337.08Z" transform="translate(-96.5 -68.5)"/><path d="M244.83,260.09c7.26,15.07,17.9,12.41,26.32,6.21s17.19-22.62,38.53-25.72c-32.43-.38-34.53,15.32-49.61,21.28C252.64,264.8,244.83,260.09,244.83,260.09Z" transform="translate(-96.5 -68.5)"/><path d="M197.11,221.58s13,12.52,14.32,20.42,8-1.43,8-1.43Z" transform="translate(-96.5 -68.5)"/><polyline points="109.28 288.8 109.52 299.44 116.89 302.99 115.96 295.9"/><polygon points="120.75 300.52 120.75 308.06 128.57 311.63 128.57 306.1 120.75 300.52"/><polygon points="132.92 308.42 132.92 315.48 139.18 317.93 139.18 311.63 132.92 308.42"/><polygon points="145.71 313.7 145.71 317.93 151.98 319.04 151.98 315.83 145.71 313.7"/></svg>